{
  "accessors": [
    {
      "bufferView": 2,
      "componentType": 5126,
      "count": 6708,
      "max": [
        11.154829978942871,
        27.18592643737793,
        10.686141014099121
      ],
      "min": [
        -11.837427139282227,
        -26.424970626831055,
        -5.707189083099365
      ],
      "type": "VEC3"
    },
    {
      "bufferView": 2,
      "byteOffset": 80496,
      "componentType": 5126,
      "count": 6708,
      "max": [
        1.0,
        0.9997890591621399,
        0.9997783303260803
      ],
      "min": [
        -1.0,
        -0.9997890591621399,
        -0.9997783303260803
      ],
      "type": "VEC3"
    },
    {
      "bufferView": 3,
      "componentType": 5126,
      "count": 6708,
      "max": [
        1.0,
        0.9986609220504761,
        0.9997528195381165,
        1.0
      ],
      "min": [
        -1.0,
        -0.9990845918655396,
        -0.9997528195381165,
        -1.0
      ],
      "type": "VEC4"
    },
    {
      "bufferView": 1,
      "componentType": 5126,
      "count": 6708,
      "max": [
        0.7916664481163025,
        0.36958038806915283
      ],
      "min": [
        0.6942092776298523,
        0.27308106422424316
      ],
      "type": "VEC2"
    },
    {
      "bufferView": 0,
      "componentType": 5125,
      "count": 19812,
      "type": "SCALAR"
    },
    {
      "bufferView": 2,
      "byteOffset": 160992,
      "componentType": 5126,
      "count": 5258,
      "max": [
        12.711799621582031,
        28.8920955657959,
        14.522449493408203
      ],
      "min": [
        -13.077249526977539,
        -22.899999618530273,
        -25.06734848022461
      ],
      "type": "VEC3"
    },
    {
      "bufferView": 2,
      "byteOffset": 224088,
      "componentType": 5126,
      "count": 5258,
      "max": [
        1.0,
        1.0,
        1.0
      ],
      "min": [
        -1.0,
        -1.0,
        -1.0
      ],
      "type": "VEC3"
    },
    {
      "bufferView": 3,
      "byteOffset": 107328,
      "componentType": 5126,
      "count": 5258,
      "max": [
        1.0,
        1.0,
        1.0,
        1.0
      ],
      "min": [
        -1.0,
        -1.0,
        -1.0,
        -1.0
      ],
      "type": "VEC4"
    },
    {
      "bufferView": 1,
      "byteOffset": 53664,
      "componentType": 5126,
      "count": 5258,
      "max": [
        0.9953415393829346,
        0.9996737837791443
      ],
      "min": [
        0.00032624322921037674,
        0.007103443145751953
      ],
      "type": "VEC2"
    },
    {
      "bufferView": 0,
      "byteOffset": 79248,
      "componentType": 5125,
      "count": 15981,
      "type": "SCALAR"
    },
    {
      "bufferView": 2,
      "byteOffset": 287184,
      "componentType": 5126,
      "count": 6682,
      "max": [
        4.289379119873047,
        16.917530059814453,
        30.63116455078125
      ],
      "min": [
        -7.9092183113098145,
        -25.576862335205078,
        -81.91500091552734
      ],
      "type": "VEC3"
    },
    {
      "bufferView": 2,
      "byteOffset": 367368,
      "componentType": 5126,
      "count": 6682,
      "max": [
        1.0,
        1.0,
        1.0
      ],
      "min": [
        -1.0,
        -0.9989686012268066,
        -1.0
      ],
      "type": "VEC3"
    },
    {
      "bufferView": 3,
      "byteOffset": 191456,
      "componentType": 5126,
      "count": 6682,
      "max": [
        1.0,
        1.0,
        1.0,
        1.0
      ],
      "min": [
        -1.0,
        -1.0,
        -1.0,
        -1.0
      ],
      "type": "VEC4"
    },
    {
      "bufferView": 1,
      "byteOffset": 95728,
      "componentType": 5126,
      "count": 6682,
      "max": [
        0.9984526038169861,
        0.9996737837791443
      ],
      "min": [
        0.00032624322921037674,
        0.003439784049987793
      ],
      "type": "VEC2"
    },
    {
      "bufferView": 0,
      "byteOffset": 143172,
      "componentType": 5125,
      "count": 18438,
      "type": "SCALAR"
    },
    {
      "bufferView": 2,
      "byteOffset": 447552,
      "componentType": 5126,
      "count": 14572,
      "max": [
        10.56828498840332,
        23.656415939331055,
        23.570159912109375
      ],
      "min": [
        -9.727742195129395,
        -55.275001525878906,
        -10.807659149169922
      ],
      "type": "VEC3"
    },
    {
      "bufferView": 2,
      "byteOffset": 622416,
      "componentType": 5126,
      "count": 14572,
      "max": [
        1.0,
        1.0,
        1.0
      ],
      "min": [
        -1.0,
        -1.0,
        -1.0
      ],
      "type": "VEC3"
    },
    {
      "bufferView": 3,
      "byteOffset": 298368,
      "componentType": 5126,
      "count": 14572,
      "max": [
        1.0,
        1.0,
        1.0,
        1.0
      ],
      "min": [
        -1.0,
        -1.0,
        -1.0,
        -1.0
      ],
      "type": "VEC4"
    },
    {
      "bufferView": 1,
      "byteOffset": 149184,
      "componentType": 5126,
      "count": 14572,
      "max": [
        0.9988740086555481,
        0.9996737837791443
      ],
      "min": [
        0.00032624322921037674,
        0.002795696258544922
      ],
      "type": "VEC2"
    },
    {
      "bufferView": 0,
      "byteOffset": 216924,
      "componentType": 5125,
      "count": 41292,
      "type": "SCALAR"
    },
    {
      "bufferView": 2,
      "byteOffset": 797280,
      "componentType": 5126,
      "count": 4651,
      "max": [
        11.339024543762207,
        24.88059425354004,
        12.93494987487793
      ],
      "min": [
        -11.123180389404297,
        -8.486271858215332,
        -14.65994930267334
      ],
      "type": "VEC3"
    },
    {
      "bufferView": 2,
      "byteOffset": 853092,
      "componentType": 5126,
      "count": 4651,
      "max": [
        1.0,
        1.0,
        1.0
      ],
      "min": [
        -1.0,
        -1.0,
        -1.0
      ],
      "type": "VEC3"
    },
    {
      "bufferView": 3,
      "byteOffset": 531520,
      "componentType": 5126,
      "count": 4651,
      "max": [
        1.0,
        1.0,
        1.0,
        1.0
      ],
      "min": [
        -1.0,
        -1.0,
        -1.0,
        -1.0
      ],
      "type": "VEC4"
    },
    {
      "bufferView": 1,
      "byteOffset": 265760,
      "componentType": 5126,
      "count": 4651,
      "max": [
        0.9990243911743164,
        0.9996737837791443
      ],
      "min": [
        0.00032624322921037674,
        0.006005644798278809
      ],
      "type": "VEC2"
    },
    {
      "bufferView": 0,
      "byteOffset": 382092,
      "componentType": 5125,
      "count": 15714,
      "type": "SCALAR"
    }
  ],
  "asset": {
    "extras": {
      "author": "Scarecrow_original (https://sketchfab.com/Scarecrow_original)",
      "license": "CC-BY-4.0 (http://creativecommons.org/licenses/by/4.0/)",
      "source": "https://sketchfab.com/3d-models/heavy-robot-3f18e4e7b6c643c4b7763febf1361ee4",
      "title": "Heavy robot"
    },
    "generator": "Sketchfab-12.94.0",
    "version": "2.0"
  },
  "bufferViews": [
    {
      "buffer": 0,
      "byteLength": 444948,
      "name": "floatBufferViews",
      "target": 34963
    },
    {
      "buffer": 0,
      "byteLength": 302968,
      "byteOffset": 444948,
      "byteStride": 8,
      "name": "floatBufferViews",
      "target": 34962
    },
    {
      "buffer": 0,
      "byteLength": 908904,
      "byteOffset": 747916,
      "byteStride": 12,
      "name": "floatBufferViews",
      "target": 34962
    },
    {
      "buffer": 0,
      "byteLength": 605936,
      "byteOffset": 1656820,
      "byteStride": 16,
      "name": "floatBufferViews",
      "target": 34962
    }
  ],
  "buffers": [
    {
      "byteLength": 2262756,
      "uri": "scene.bin"
    }
  ],
  "images": [
    {
      "uri": "textures/Scene_-_Root_baseColor.png"
    },
    {
      "uri": "textures/Scene_-_Root_metallicRoughness.png"
    },
    {
      "uri": "textures/Scene_-_Root_normal.png"
    }
  ],
  "materials": [
    {
      "doubleSided": true,
      "name": "Scene_-_Root",
      "normalTexture": {
        "index": 2
      },
      "occlusionTexture": {
        "index": 1
      },
      "pbrMetallicRoughness": {
        "baseColorTexture": {
          "index": 0
        },
        "metallicRoughnessTexture": {
          "index": 1
        }
      }
    }
  ],
  "meshes": [
    {
      "name": "GC__0",
      "primitives": [
        {
          "attributes": {
            "NORMAL": 1,
            "POSITION": 0,
            "TANGENT": 2,
            "TEXCOORD_0": 3
          },
          "indices": 4,
          "material": 0,
          "mode": 4
        }
      ]
    },
    {
      "name": "Body__0",
      "primitives": [
        {
          "attributes": {
            "NORMAL": 6,
            "POSITION": 5,
            "TANGENT": 7,
            "TEXCOORD_0": 8
          },
          "indices": 9,
          "material": 0,
          "mode": 4
        }
      ]
    },
    {
      "name": "Arms__0",
      "primitives": [
        {
          "attributes": {
            "NORMAL": 11,
            "POSITION": 10,
            "TANGENT": 12,
            "TEXCOORD_0": 13
          },
          "indices": 14,
          "material": 0,
          "mode": 4
        }
      ]
    },
    {
      "name": "Legs__0",
      "primitives": [
        {
          "attributes": {
            "NORMAL": 16,
            "POSITION": 15,
            "TANGENT": 17,
            "TEXCOORD_0": 18
          },
          "indices": 19,
          "material": 0,
          "mode": 4
        }
      ]
    },
    {
      "name": "Head__0",
      "primitives": [
        {
          "attributes": {
            "NORMAL": 21,
            "POSITION": 20,
            "TANGENT": 22,
            "TEXCOORD_0": 23
          },
          "indices": 24,
          "material": 0,
          "mode": 4
        }
      ]
    }
  ],
  "nodes": [
    {
      "children": [
        1
      ],
      "matrix": [
        1.0,
        0.0,
        0.0,
        0.0,
        0.0,
        2.220446049250313e-16,
        -1.0,
        0.0,
        0.0,
        1.0,
        2.220446049250313e-16,
        0.0,
        0.0,
        0.0,
        0.0,
        1.0
      ],
      "name": "Sketchfab_model"
    },
    {
      "children": [
        2
      ],
      "matrix": [
        0.009999999776482582,
        0.0,
        0.0,
        0.0,
        0.0,
        0.0,
        0.009999999776482582,
        0.0,
        0.0,
        -0.009999999776482582,
        0.0,
        0.0,
        0.0,
        0.0,
        0.0,
        1.0
      ],
      "name": "907c03073427499a8c0551883643e784.fbx"
    },
    {
      "children": [
        3
      ],
      "name": "RootNode"
    },
    {
      "children": [
        4,
        6,
        8,
        10,
        12
      ],
      "matrix": [
        1.0,
        0.0,
        0.0,
        0.0,
        0.0,
        1.0,
        0.0,
        0.0,
        0.0,
        0.0,
        1.0,
        0.0,
        0.6027419567108154,
        -8.24225902557373,
        5.7807183265686035,
        1.0
      ],
      "name": "Robot"
    },
    {
      "children": [
        5
      ],
      "matrix": [
        1.0,
        0.0,
        0.0,
        0.0,
        0.0,
        1.0,
        0.0,
        0.0,
        0.0,
        0.0,
        1.0,
        0.0,
        -0.36102885007858276,
        12.626741409301758,
        -8.270194053649902,
        1.0
      ],
      "name": "GC"
    },
    {
      "mesh": 0,
      "name": "GC__0"
    },
    {
      "children": [
        7
      ],
      "matrix": [
        1.0,
        0.0,
        0.0,
        0.0,
        0.0,
        1.0,
        0.0,
        0.0,
        0.0,
        0.0,
        1.0,
        0.0,
        -0.9299919605255127,
        -1.7577412128448486,
        -0.5082686543464661,
        1.0
      ],
      "name": "Body"
    },
    {
      "mesh": 1,
      "name": "Body__0"
    },
    {
      "children": [
        9
      ],
      "matrix": [
        1.0,
        0.0,
        0.0,
        0.0,
        0.0,
        1.0,
        0.0,
        0.0,
        0.0,
        0.0,
        1.0,
        0.0,
        1.5564765930175781,
        4.616626262664795,
        19.8612003326416,
        1.0
      ],
      "name": "Arms"
    },
    {
      "mesh": 2,
      "name": "Arms__0"
    },
    {
      "children": [
        11
      ],
      "matrix": [
        1.0,
        0.0,
        0.0,
        0.0,
        0.0,
        1.0,
        0.0,
        0.0,
        0.0,
        0.0,
        1.0,
        0.0,
        0.7263104915618896,
        -39.514156341552734,
        -12.161968231201172,
        1.0
      ],
      "name": "Legs"
    },
    {
      "mesh": 3,
      "name": "Legs__0"
    },
    {
      "children": [
        13
      ],
      "matrix": [
        1.0,
        0.0,
        0.0,
        0.0,
        0.0,
        1.0,
        0.0,
        0.0,
        0.0,
        0.0,
        1.0,
        0.0,
        -0.9917662739753723,
        24.02853012084961,
        1.0792313814163208,
        1.0
      ],
      "name": "Head"
    },
    {
      "mesh": 4,
      "name": "Head__0"
    }
  ],
  "samplers": [
    {
      "magFilter": 9729,
      "minFilter": 9987,
      "wrapS": 10497,
      "wrapT": 10497
    }
  ],
  "scene": 0,
  "scenes": [
    {
      "name": "Sketchfab_Scene",
      "nodes": [
        0
      ]
    }
  ],
  "textures": [
    {
      "sampler": 0,
      "source": 0
    },
    {
      "sampler": 0,
      "source": 1
    },
    {
      "sampler": 0,
      "source": 2
    }
  ]
}
